<?xml version="1.0" standalone="no"?>
<!DOCTYPE svg PUBLIC "-//W3C//DTD SVG 20010904//EN"
 "http://www.w3.org/TR/2001/REC-SVG-20010904/DTD/svg10.dtd">
<svg version="1.0" xmlns="http://www.w3.org/2000/svg"
 width="1337.000000pt" height="1337.000000pt" viewBox="0 0 1337.000000 1337.000000"
 preserveAspectRatio="xMidYMid meet">
<metadata>
Created by potrace 1.14, written by Peter Selinger 2001-2017
</metadata>
<g transform="translate(0.000000,1337.000000) scale(0.100000,-0.100000)"
fill="#000000" stroke="none">
<path d="M0 6685 l0 -6685 6685 0 6685 0 0 6685 0 6685 -6685 0 -6685 0 0
-6685z m6555 3851 c543 -40 810 -80 1150 -172 702 -190 1227 -483 1678 -937
586 -590 928 -1309 1036 -2182 78 -623 42 -1214 -106 -1760 -142 -524 -426
-1074 -752 -1455 -277 -324 -599 -594 -926 -777 -625 -350 -1208 -500 -2159
-553 -102 -6 -730 -10 -1467 -10 l-1289 0 0 3936 0 3936 1313 -5 c1048 -4
1354 -8 1522 -21z"/>
<path d="M5288 9125 c-5 -5 -8 -1133 -8 -2507 l0 -2498 473 0 c574 0 812 15
1172 71 593 93 1090 356 1429 758 170 201 283 416 369 701 133 438 163 1080
76 1600 -145 864 -640 1425 -1509 1708 -233 76 -539 128 -905 152 -197 13
-1088 25 -1097 15z"/>
</g>
</svg>
